<svg width="78" height="78" viewBox="0 0 3 10" fill="none" xmlns="http://www.w3.org/2000/svg">
<path d="M2.48366 0.11595C2.52025 0.152469 2.54928 0.195838 2.56909 0.243592C2.5889 0.291333 2.5991 0.342524 2.5991 0.394224C2.5991 0.445912 2.5889 0.497103 2.56909 0.544844C2.54928 0.592598 2.52025 0.635967 2.48366 0.672486L0.9522 2.20395L2.48366 3.73541C2.55747 3.80921 2.59893 3.90931 2.59893 4.01368C2.59893 4.11804 2.55747 4.21814 2.48366 4.29195C2.40987 4.36575 2.30977 4.40721 2.2054 4.40721C2.10103 4.40721 2.00093 4.36575 1.92713 4.29195L0.115423 2.48024C0.0788303 2.44372 0.0498042 2.40035 0.029996 2.3526C0.0101879 2.30486 -1.85077e-06 2.25367 -1.85077e-06 2.20198C-1.85077e-06 2.15028 0.0101879 2.09909 0.029996 2.05135C0.0498042 2.00359 0.0788303 1.96023 0.115423 1.92371L1.92713 0.112003C2.07711 -0.0379858 2.32973 -0.0379856 2.48366 0.11595Z" fill="white"/>
</svg>
